# xmcd
#
# Track frame offsets: 
#        150
#        13051
#        26820
#        37966
#        49460
#        70141
#        85058
#        93126
#        102880
#        110562
#        118738
#        132447
#        140148
#        148849
#        154613
#        167664
#        179522
#        190000
#        203995
#        213404
#        219767
#        233284
#        244565
#        251869
#        261928
#        280569
#        291314
#
# Disc length: 4053 seconds
#
# Revision: 0
# Processed by: cddbd v1.5.2PL0 Copyright (c) Steve Scherf et al.
# Submitted via: ExactAudioCopy v0.99pb4
#
DISCID=8d0fd31b
DTITLE=Радуница - "...И тебе я в песне отзовусь..." 
DYEAR=2004
DGENRE=
TTITLE0=Колыбельная
TTITLE1=Ехали солдаты
TTITLE2=Сизонький голубчик
TTITLE3=Во субботу день ненастный
TTITLE4=Ой, да не вечер
TTITLE5=Из-за леса, из-за рощи
TTITLE6=В чистом поле
TTITLE7=Как по горкам, по горам
TTITLE8=Ах-ти-ка, молодка
TTITLE9=А у Володи на току
TTITLE10=Там, на горке
TTITLE11=Вишни, мои вишни
TTITLE12=Ой, да пойду млада
TTITLE13=Ну-ка, кума
TTITLE14=Сушица-грушица
TTITLE15=По-за городу гуляет
TTITLE16=Частушки под балалайку
TTITLE17=Шарабан
TTITLE18=Константиновские частушки
TTITLE19=Я по жёрдочке шла
TTITLE20=Семь женихов
TTITLE21=Вдоль по морю
TTITLE22=Верный наш колодец
TTITLE23=Бочоночек
TTITLE24=По муромской дорожке
TTITLE25=Живёт моя отрада
TTITLE26=Коробейники
EXTD=
EXTT0=
EXTT1=
EXTT2=
EXTT3=
EXTT4=
EXTT5=
EXTT6=
EXTT7=
EXTT8=
EXTT9=
EXTT10=
EXTT11=
EXTT12=
EXTT13=
EXTT14=
EXTT15=
EXTT16=
EXTT17=
EXTT18=
EXTT19=
EXTT20=
EXTT21=
EXTT22=
EXTT23=
EXTT24=
EXTT25=
EXTT26=
PLAYORDER=
